<svg width="90" height="62" viewBox="0 0 90 62" fill="none" xmlns="http://www.w3.org/2000/svg">
<path fill-rule="evenodd" clip-rule="evenodd" d="M1.0416 60.9315C1.0416 60.9315 1.0415 60.9317 1.1791 61.0078C1.24788 61.1557 1.24798 61.1556 1.24798 61.1556L1.25626 61.1506L1.2816 61.135L1.38137 61.0741C1.46911 61.0208 1.59851 60.9425 1.76485 60.8429C2.09754 60.6438 2.57793 60.3598 3.1682 60.0203C4.34893 59.3412 5.96851 58.4409 7.72468 57.555C9.48147 56.6689 11.3717 55.799 13.0943 55.1795C14.8233 54.5578 16.3601 54.1973 17.422 54.308L17.4928 53.9614C16.3566 53.8429 14.7597 54.2269 13.0244 54.8509C11.2828 55.4772 9.37813 56.3542 7.61484 57.2436C5.85094 58.1333 4.22518 59.0372 3.04059 59.7184C2.44821 60.0591 1.96595 60.3443 1.63165 60.5443C1.62399 60.5489 1.61641 60.5535 1.60891 60.558C1.66376 60.458 1.72553 60.345 1.79351 60.2197C2.0912 59.6711 2.50811 58.8883 2.98536 57.9506C3.93948 56.076 5.13635 53.5794 6.1036 51.0976C7.06848 48.6218 7.81431 46.1375 7.84871 44.2969C7.86593 43.3754 7.70545 42.5917 7.28209 42.0553C6.85402 41.5129 6.17755 41.2486 5.22294 41.3185L5.20557 41.6658C6.08868 41.6012 6.6644 41.846 7.02065 42.2974C7.38163 42.7548 7.53761 43.4495 7.52111 44.3324C7.48806 46.1006 6.76568 48.5288 5.8029 50.9991C4.84251 53.4634 3.6523 55.9465 2.70126 57.8151C2.22592 58.749 1.81073 59.5286 1.51446 60.0746C1.36633 60.3476 1.24796 60.5621 1.16667 60.7082C1.12603 60.7813 1.09467 60.8373 1.0735 60.875L1.04951 60.9176L1.0416 60.9315ZM1.1791 61.0078L1.24798 61.1556L0.734446 61.4725L1.0416 60.9315L1.1791 61.0078Z" fill="black" fill-opacity="0.8"/>
<path fill-rule="evenodd" clip-rule="evenodd" d="M45.3783 16.2622C30.8588 25.19 17.657 37.2823 9.30932 50.7943L9.57673 50.9595C17.8828 37.5147 31.0332 25.4632 45.5154 16.5584C59.9975 7.65358 75.796 1.90494 89.3888 1.05078L89.4094 0.703194C75.7506 1.56149 59.8978 7.33439 45.3783 16.2622Z" fill="black" fill-opacity="0.8"/>
</svg>
